<?xml version="1.0" encoding="utf-8" standalone="no"?>
<!DOCTYPE svg PUBLIC "-//W3C//DTD SVG 1.1//EN"
  "http://www.w3.org/Graphics/SVG/1.1/DTD/svg11.dtd">
<svg xmlns:xlink="http://www.w3.org/1999/xlink" width="438.014239pt" height="303.95625pt" viewBox="0 0 438.014239 303.95625" xmlns="http://www.w3.org/2000/svg" version="1.1">
 <metadata>
  <rdf:RDF xmlns:dc="http://purl.org/dc/elements/1.1/" xmlns:cc="http://creativecommons.org/ns#" xmlns:rdf="http://www.w3.org/1999/02/22-rdf-syntax-ns#">
   <cc:Work>
    <dc:type rdf:resource="http://purl.org/dc/dcmitype/StillImage"/>
    <dc:date>2024-02-23T13:48:16.014998</dc:date>
    <dc:format>image/svg+xml</dc:format>
    <dc:creator>
     <cc:Agent>
      <dc:title>Matplotlib v3.7.3, https://matplotlib.org/</dc:title>
     </cc:Agent>
    </dc:creator>
   </cc:Work>
  </rdf:RDF>
 </metadata>
 <defs>
  <style type="text/css">*{stroke-linejoin: round; stroke-linecap: butt}</style>
 </defs>
 <g id="figure_1">
  <g id="patch_1">
   <path d="M 0 303.95625 
L 438.014239 303.95625 
L 438.014239 0 
L 0 0 
z
" style="fill: #ffffff"/>
  </g>
  <g id="axes_1">
   <g id="patch_2">
    <path d="M 131.294239 231.84 
L 430.814239 231.84 
L 430.814239 7.2 
L 131.294239 7.2 
L 131.294239 231.84 
z
" style="fill: none; opacity: 0"/>
   </g>
   <g id="matplotlib.axis_1"/>
   <g id="matplotlib.axis_2"/>
   <g id="line2d_1">
    <path d="M 144.908785 221.629091 
L 145.98625 221.567535 
L 146.140174 221.412851 
L 146.294097 221.400354 
L 146.601945 221.088274 
L 146.755868 221.085071 
L 147.063715 221.61006 
L 147.67941 221.60973 
L 148.833837 221.578256 
L 149.257127 221.608059 
L 152.75889 221.559003 
L 153.259142 221.465445 
L 153.60547 221.625008 
L 156.029767 221.62909 
L 168.189734 221.526988 
L 168.459101 221.51981 
L 168.84391 221.596845 
L 169.382642 221.540434 
L 169.728971 221.611094 
L 170.844917 221.532021 
L 171.191245 221.348874 
L 171.537573 221.558414 
L 171.922382 221.458963 
L 172.268711 221.619193 
L 172.499596 221.510013 
L 172.730481 221.174944 
L 172.768962 221.209118 
L 172.884405 221.290025 
L 172.922886 221.253663 
L 173.07681 221.116843 
L 173.115291 221.147809 
L 173.538581 221.614755 
L 173.692504 221.52725 
L 173.846428 221.025876 
L 174.154275 219.393797 
L 174.423641 219.771354 
L 174.923893 221.320173 
L 175.154779 221.572494 
L 175.347183 221.478368 
L 175.578069 221.20706 
L 175.61655 221.243552 
L 175.962878 221.612528 
L 176.809458 221.622367 
L 177.425152 221.533879 
L 177.848442 221.113229 
L 178.002366 220.72129 
L 178.040847 220.767534 
L 178.19477 221.056719 
L 178.271732 220.7352 
L 178.425656 218.559903 
L 178.541099 217.198788 
L 178.57958 217.326335 
L 178.848946 219.817811 
L 178.887427 219.77861 
L 178.964389 219.80398 
L 179.541602 221.523177 
L 179.772488 221.586757 
L 180.003373 221.472504 
L 180.349701 221.166519 
L 180.388182 221.209844 
L 180.73451 221.608246 
L 181.11932 221.550492 
L 181.388686 221.290528 
L 181.427167 221.334028 
L 181.735014 221.600187 
L 182.773999 221.595513 
L 183.774502 221.4507 
L 184.12083 221.328399 
L 184.351716 221.532862 
L 184.582601 221.545012 
L 184.813487 221.61665 
L 184.96741 221.519402 
L 185.236777 221.004548 
L 185.313739 221.123876 
L 185.583105 221.607497 
L 186.545128 221.537386 
L 186.776013 221.551604 
L 187.276265 221.617064 
L 187.545631 221.485744 
L 187.699555 221.49399 
L 188.122845 221.605838 
L 190.547142 221.575667 
L 190.701066 221.301817 
L 190.816508 221.141861 
L 190.854989 221.18197 
L 191.124356 221.53862 
L 191.355241 221.581779 
L 191.586127 221.581443 
L 192.009417 221.509871 
L 192.317264 221.625144 
L 192.663592 221.527866 
L 192.855997 221.401063 
L 193.202325 221.58027 
L 193.510172 221.569476 
L 193.818019 221.597107 
L 194.433714 221.473684 
L 194.70308 221.52433 
L 195.049408 221.068257 
L 195.12637 221.1884 
L 195.357256 221.497955 
L 195.472698 221.344103 
L 195.626622 221.105988 
L 195.665103 221.128046 
L 196.011431 221.530874 
L 196.049912 221.502253 
L 196.203836 221.146679 
L 196.357759 220.778544 
L 196.858011 221.553103 
L 197.512187 220.869426 
L 197.704591 220.26106 
L 197.743072 220.310492 
L 198.166362 221.400872 
L 198.320286 221.446707 
L 198.51269 221.481046 
L 198.705095 221.083733 
L 198.859018 220.831874 
L 199.128385 221.218441 
L 199.35927 221.568862 
L 199.551675 221.529237 
L 200.051927 221.192952 
L 200.475217 221.53767 
L 200.783064 221.581658 
L 201.013949 221.496422 
L 201.360277 221.032577 
L 201.398758 221.066999 
L 201.783567 221.50731 
L 201.89901 221.349104 
L 202.129896 220.601126 
L 202.206857 220.708288 
L 202.3223 220.849507 
L 202.360781 220.827805 
L 202.784071 220.415078 
L 202.822552 220.474155 
L 203.053437 220.857057 
L 203.091918 220.839537 
L 203.207361 220.850791 
L 203.669132 221.599425 
L 204.246346 221.38276 
L 204.323307 221.352639 
L 204.361788 221.40517 
L 204.592674 221.581555 
L 204.746597 221.409849 
L 204.977483 220.865842 
L 205.015964 220.896864 
L 205.400773 221.555154 
L 205.554696 221.354644 
L 205.785582 220.810279 
L 205.824063 220.862565 
L 206.208872 221.470791 
L 206.401276 221.178955 
L 206.670643 220.908716 
L 206.901528 220.991614 
L 207.209376 221.43993 
L 207.671146 221.534369 
L 207.82507 221.104036 
L 208.132917 220.014156 
L 208.363803 220.060976 
L 208.979497 221.497197 
L 209.210383 221.55929 
L 209.364306 221.355022 
L 209.51823 221.117548 
L 209.556711 221.145135 
L 209.903039 221.556631 
L 210.249367 221.541683 
L 210.557215 221.61826 
L 211.172909 221.518717 
L 211.288352 221.257083 
L 211.442275 220.19786 
L 211.673161 218.910082 
L 211.788604 219.231353 
L 212.096451 220.565184 
L 212.48126 220.825389 
L 212.789107 221.573735 
L 213.019993 221.56197 
L 213.173916 221.358278 
L 213.366321 220.580327 
L 213.558725 219.975147 
L 213.674168 220.221925 
L 213.982015 221.016331 
L 214.17442 221.261345 
L 214.443786 221.569711 
L 215.021 221.59422 
L 215.405809 221.490317 
L 215.752137 221.615827 
L 216.521755 221.627073 
L 217.368335 221.563692 
L 217.56074 221.233796 
L 217.676183 221.12257 
L 217.714664 221.15733 
L 218.022511 221.550606 
L 218.253396 221.574048 
L 218.522763 221.601646 
L 220.870098 221.605108 
L 221.293388 221.546361 
L 221.601235 221.627315 
L 222.101487 221.545098 
L 222.255411 221.236935 
L 222.486296 220.502875 
L 222.524777 220.562173 
L 222.909586 221.447156 
L 223.409838 221.618345 
L 225.564769 221.621185 
L 225.949578 221.516499 
L 226.372868 221.267457 
L 226.988563 221.62064 
L 237.186003 221.52438 
L 237.609293 221.333561 
L 238.109545 221.606554 
L 240.033591 221.530607 
L 241.034094 221.373383 
L 241.149537 221.23065 
L 241.495865 220.168837 
L 241.572827 220.318424 
L 241.803712 220.770895 
L 241.996117 220.893798 
L 242.419407 221.440574 
L 242.765735 221.425816 
L 242.95814 221.207189 
L 243.189025 220.839642 
L 243.227506 220.86707 
L 243.496872 221.309581 
L 243.535353 221.27348 
L 243.689277 221.099427 
L 243.727758 221.126829 
L 243.958643 221.432929 
L 243.997124 221.382517 
L 244.074086 221.046852 
L 244.189529 219.148072 
L 244.458895 208.2186 
L 244.535857 209.811638 
L 244.882185 221.053491 
L 245.036109 221.417297 
L 245.151551 221.115918 
L 245.266994 220.781702 
L 245.305475 220.795171 
L 245.728765 221.603033 
L 245.882689 221.481106 
L 246.152055 220.98645 
L 246.229017 221.088903 
L 246.34446 221.28186 
L 246.38294 221.261103 
L 246.613826 220.773635 
L 246.652307 220.838551 
L 246.960154 221.50495 
L 247.306482 221.332226 
L 247.61433 221.542369 
L 247.729772 221.354558 
L 247.845215 220.720907 
L 248.114581 217.652329 
L 248.191543 218.147483 
L 248.422429 220.080307 
L 248.576352 220.130354 
L 248.92268 221.452374 
L 248.999642 221.383365 
L 249.230528 221.119466 
L 249.499894 221.257149 
L 249.807741 221.192705 
L 250.346474 221.489287 
L 250.61584 221.077697 
L 250.692802 221.218176 
L 250.923688 221.579223 
L 251.116092 221.4809 
L 251.308497 221.395016 
L 251.616344 221.54103 
L 251.770268 221.35034 
L 251.924191 221.232627 
L 252.116596 221.347656 
L 252.385962 220.9787 
L 252.462924 221.110963 
L 252.73229 221.528715 
L 252.924695 221.465432 
L 253.271023 220.961757 
L 253.309504 221.014995 
L 253.501909 221.252156 
L 253.540389 221.221731 
L 253.848237 221.003565 
L 254.117603 220.999233 
L 254.271527 221.049553 
L 254.694817 221.194974 
L 254.810259 221.163096 
L 255.618359 220.213472 
L 255.887725 220.611221 
L 255.926206 220.54903 
L 256.234053 219.94182 
L 256.311015 220.019019 
L 256.503419 220.849871 
L 256.734305 221.339682 
L 257.119114 221.392614 
L 257.311519 221.058028 
L 257.349999 221.098878 
L 257.542404 221.346948 
L 257.657847 220.983358 
L 257.81177 220.422606 
L 257.850251 220.431615 
L 258.042656 220.980917 
L 258.119618 220.839155 
L 258.388984 219.558799 
L 258.465946 219.712417 
L 258.619869 220.083116 
L 258.65835 220.064394 
L 259.120121 219.469951 
L 259.158602 219.506344 
L 259.543411 220.272766 
L 259.697335 220.398473 
L 260.197587 219.88112 
L 260.389991 219.95153 
L 260.505434 220.165033 
L 260.697838 220.700437 
L 260.736319 220.681261 
L 261.044167 219.804126 
L 261.121128 219.998042 
L 261.352014 220.433293 
L 261.467457 220.327373 
L 261.659861 219.909997 
L 261.698342 219.956636 
L 261.890747 220.452019 
L 261.929228 220.400625 
L 262.121632 219.852682 
L 262.160113 219.87057 
L 262.275556 220.235243 
L 262.583403 221.206212 
L 262.698846 221.050535 
L 263.122136 220.058873 
L 263.353021 219.679779 
L 263.429983 219.800017 
L 263.545426 219.874514 
L 263.699349 219.332079 
L 263.776311 219.194936 
L 263.814792 219.240021 
L 264.122639 220.314885 
L 264.199601 220.240992 
L 264.392006 220.065643 
L 264.699853 220.093596 
L 265.0077 219.208588 
L 265.046181 219.235086 
L 265.507952 220.030039 
L 265.546433 219.966092 
L 265.623395 219.308063 
L 265.777318 215.116663 
L 265.969723 209.838138 
L 266.008204 210.140661 
L 266.316051 218.021466 
L 266.393013 217.272882 
L 266.585417 214.27714 
L 266.623898 214.5314 
L 266.739341 215.446031 
L 266.816303 213.259959 
L 266.931746 191.065906 
L 267.12415 62.360571 
L 267.239593 17.410909 
L 267.278074 27.137958 
L 267.739845 215.043137 
L 267.816807 213.857719 
L 268.086173 202.670443 
L 268.124654 203.499468 
L 268.470982 217.610637 
L 268.509463 216.94093 
L 268.663387 209.613045 
L 268.855791 198.918106 
L 268.894272 199.413423 
L 269.125157 208.90218 
L 269.202119 207.567176 
L 269.317562 205.718999 
L 269.356043 206.339008 
L 269.740852 216.133352 
L 270.010218 213.814471 
L 270.08718 214.198985 
L 270.548951 218.196285 
L 270.664394 218.016254 
L 270.779837 217.000606 
L 271.049203 210.489432 
L 271.126165 211.260999 
L 271.510974 218.395767 
L 271.703378 218.8612 
L 271.818821 218.385957 
L 271.972745 217.832424 
L 272.011226 217.961243 
L 272.242111 219.1983 
L 272.280592 219.176184 
L 272.703882 218.1891 
L 272.742363 218.242386 
L 273.011729 218.592083 
L 273.05021 218.539349 
L 273.204134 218.293769 
L 273.242615 218.407442 
L 273.511981 219.670641 
L 273.550462 219.639318 
L 274.050714 219.182081 
L 274.243118 219.271081 
L 274.512485 220.175791 
L 274.627927 220.358745 
L 274.666408 220.31314 
L 274.858813 219.892571 
L 274.897294 219.919436 
L 275.16666 220.659091 
L 275.243622 220.473209 
L 275.359065 220.169589 
L 275.397546 220.189559 
L 275.628431 220.835268 
L 275.705393 220.666869 
L 275.820836 220.364057 
L 275.859316 220.382118 
L 276.128683 221.136812 
L 276.205645 221.048334 
L 276.359568 221.039551 
L 276.43653 221.062219 
L 276.475011 220.995323 
L 276.744377 219.811756 
L 276.821339 220.037482 
L 276.936782 220.369747 
L 276.975263 220.290747 
L 277.206148 218.961469 
L 277.244629 219.11443 
L 277.590957 220.963013 
L 277.860324 220.989937 
L 278.168171 220.682314 
L 278.399056 221.07388 
L 278.476018 220.959103 
L 278.668423 220.517431 
L 278.706904 220.555642 
L 278.899308 220.848148 
L 278.937789 220.820478 
L 279.091713 220.67874 
L 279.130194 220.705653 
L 279.322598 220.822867 
L 279.630445 220.617218 
L 279.861331 220.886186 
L 279.899812 220.810837 
L 280.130697 220.119584 
L 280.207659 220.228566 
L 280.361583 220.496677 
L 280.400064 220.479977 
L 280.592468 220.2539 
L 280.977277 220.807949 
L 281.015758 220.776008 
L 281.400567 220.404506 
L 281.708415 220.375447 
L 281.823857 220.467369 
L 282.170185 221.200051 
L 282.208666 221.160359 
L 282.516514 220.453751 
L 282.593475 220.551103 
L 282.824361 220.95252 
L 283.016765 220.519086 
L 283.286132 219.514812 
L 283.440055 220.099094 
L 283.593979 220.58393 
L 283.63246 220.568672 
L 283.786384 220.120203 
L 283.940307 219.273498 
L 284.05575 216.861132 
L 284.248155 204.776705 
L 284.402078 196.501516 
L 284.440559 196.792976 
L 284.594483 205.947258 
L 284.863849 218.563276 
L 285.017773 219.32248 
L 285.210177 219.06832 
L 285.248658 219.112216 
L 285.441063 219.928945 
L 285.594986 220.234244 
L 285.671948 220.129395 
L 285.787391 219.451643 
L 286.018276 217.062856 
L 286.056757 217.120193 
L 286.364604 219.509 
L 286.441566 219.232908 
L 286.59549 218.630389 
L 286.633971 218.643618 
L 286.710933 218.751598 
L 287.01878 219.318035 
L 287.288146 219.463083 
L 287.595994 219.954396 
L 287.788398 220.354038 
L 287.826879 220.324586 
L 288.134726 219.165564 
L 288.211688 218.998469 
L 288.250169 219.024135 
L 288.365612 219.630121 
L 288.673459 221.174714 
L 288.788902 221.07771 
L 289.13523 220.006294 
L 289.212192 220.120058 
L 289.481558 220.867944 
L 289.520039 220.809233 
L 289.750924 220.065931 
L 289.943329 219.412565 
L 290.020291 219.531787 
L 290.366619 221.01189 
L 290.4051 220.98286 
L 290.751428 220.474395 
L 290.789909 220.510534 
L 291.213199 221.446046 
L 291.290161 221.383442 
L 291.636489 220.967149 
L 291.944336 220.285585 
L 292.09826 220.353816 
L 292.52155 221.128893 
L 292.636993 220.913085 
L 292.906359 219.971687 
L 292.94484 220.044011 
L 293.214206 220.813151 
L 293.252687 220.777487 
L 293.445092 220.58677 
L 293.829901 220.869789 
L 293.983824 220.9052 
L 294.445595 221.378568 
L 294.638 221.511719 
L 294.830404 221.371555 
L 294.984328 221.00598 
L 295.253694 220.454513 
L 295.638503 220.743644 
L 295.792427 220.995886 
L 295.830908 220.963684 
L 296.215717 220.503756 
L 296.408122 220.541109 
L 296.869893 221.38971 
L 296.908373 221.370181 
L 297.17774 221.230469 
L 297.447106 221.396062 
L 297.639511 221.381479 
L 298.02432 221.602299 
L 298.524572 221.434159 
L 298.947862 220.788488 
L 299.101785 220.937614 
L 299.448113 221.436595 
L 299.948365 221.237985 
L 300.256212 221.592261 
L 301.102792 221.519117 
L 301.372159 221.610713 
L 305.566578 221.629062 
L 308.60657 221.523648 
L 309.183783 221.220464 
L 309.991882 221.453105 
L 311.184791 221.562894 
L 311.800485 221.543165 
L 312.146813 221.419551 
L 312.454661 221.497573 
L 312.800989 221.472963 
L 313.108836 221.583072 
L 313.801492 221.4149 
L 313.955416 221.207627 
L 314.263263 220.390087 
L 314.340225 220.493852 
L 314.763515 221.52742 
L 315.148324 221.587448 
L 315.494652 221.518154 
L 315.764019 221.130497 
L 315.917942 221.039438 
L 316.803003 221.588439 
L 317.457179 221.621145 
L 318.957934 221.520396 
L 319.18882 221.162437 
L 319.381224 220.982493 
L 319.842995 221.238325 
L 320.035399 220.883111 
L 320.266285 220.518015 
L 320.458689 220.373465 
L 320.612613 220.209028 
L 320.651094 220.241856 
L 320.997422 220.878966 
L 321.074384 220.825402 
L 321.189827 220.80071 
L 321.382231 221.204377 
L 321.651598 221.566547 
L 322.036407 221.599567 
L 322.536659 221.418841 
L 322.921468 221.325709 
L 323.190834 221.229157 
L 323.421719 221.15916 
L 323.960452 221.590796 
L 324.268299 221.525974 
L 324.460704 221.279949 
L 324.73007 220.994366 
L 325.191841 221.356832 
L 325.384246 220.907837 
L 325.615131 220.501735 
L 325.769055 220.844356 
L 326.076902 221.500912 
L 326.230826 221.505246 
L 326.384749 221.271471 
L 326.654116 220.603234 
L 326.692597 220.623465 
L 326.84652 220.998975 
L 327.115887 221.483871 
L 327.423734 221.512022 
L 327.808543 221.364546 
L 328.154871 221.082868 
L 328.886008 221.426267 
L 329.078413 221.219349 
L 329.270818 221.012776 
L 329.309298 221.035933 
L 329.924993 221.60845 
L 330.771573 221.586805 
L 331.002458 221.362844 
L 331.271825 221.039266 
L 331.733596 221.400882 
L 332.079924 221.169619 
L 332.272328 220.967113 
L 332.464733 221.281279 
L 332.695618 221.524051 
L 332.926504 221.43803 
L 333.118908 221.052702 
L 333.311313 220.726899 
L 333.465237 221.020348 
L 333.734603 221.515614 
L 334.04245 221.61328 
L 335.543206 221.560384 
L 335.889534 221.302867 
L 336.235862 221.614166 
L 336.505228 221.545828 
L 336.774595 221.462888 
L 337.082442 221.52761 
L 337.313327 221.540982 
L 337.736617 221.573481 
L 338.005984 221.404867 
L 338.352312 221.077655 
L 338.929526 221.454769 
L 339.12193 221.356656 
L 339.314335 220.834308 
L 339.622182 219.823747 
L 339.737625 220.123985 
L 340.122434 221.238941 
L 340.237876 221.206952 
L 340.507243 221.041842 
L 340.699647 221.255702 
L 340.930533 221.388278 
L 341.315342 221.244804 
L 341.584708 221.054814 
L 342.08496 221.567612 
L 342.662174 221.487045 
L 343.123945 221.169012 
L 343.35483 221.280317 
L 343.816601 221.251031 
L 344.470776 221.511606 
L 344.817105 221.318298 
L 344.932547 221.328105 
L 345.04799 221.001743 
L 345.201914 219.731174 
L 345.509761 216.22463 
L 345.548242 216.422972 
L 345.933051 219.365215 
L 346.048494 219.368458 
L 346.163936 219.781263 
L 346.471784 221.022776 
L 346.625707 221.011064 
L 347.010516 220.625865 
L 347.202921 220.339066 
L 347.241402 220.374966 
L 347.895577 221.519144 
L 348.087982 221.504499 
L 348.472791 221.265939 
L 348.8576 221.557306 
L 349.203928 221.522048 
L 349.588737 221.539456 
L 350.204432 221.623052 
L 351.358859 221.525043 
L 351.589745 221.172463 
L 351.82063 220.871778 
L 351.974554 221.130842 
L 352.282401 221.558935 
L 352.66721 221.602648 
L 352.898095 221.483851 
L 353.128981 221.028981 
L 353.321385 220.686487 
L 353.359866 220.704228 
L 353.51379 221.032246 
L 353.821637 221.548417 
L 354.167965 221.593868 
L 354.514294 221.501305 
L 355.322393 220.916469 
L 355.514797 220.96938 
L 355.745683 221.094425 
L 356.092011 221.061888 
L 356.399858 221.447012 
L 356.823148 221.170343 
L 357.015553 220.281084 
L 357.284919 219.26131 
L 357.400362 219.23814 
L 357.515804 219.59439 
L 357.939094 221.461011 
L 358.16998 221.579608 
L 358.785674 221.49391 
L 359.170484 221.386762 
L 359.516812 221.529451 
L 360.055544 221.589273 
L 360.324911 221.347334 
L 360.70972 221.087824 
L 361.325414 221.477101 
L 361.440857 221.440564 
L 361.594781 221.037971 
L 362.018071 219.489745 
L 362.133513 219.668879 
L 362.672246 221.202178 
L 363.67275 221.556642 
L 364.788696 221.545666 
L 365.019582 221.537702 
L 365.250467 221.514316 
L 365.481353 221.496862 
L 365.673757 221.483089 
L 365.981604 221.572848 
L 366.21249 221.400642 
L 366.558818 220.842349 
L 366.63578 220.945606 
L 367.05907 221.44936 
L 367.251474 221.284478 
L 367.48236 220.964508 
L 367.520841 220.987533 
L 368.021092 221.508765 
L 368.175016 221.388889 
L 368.482863 220.679348 
L 368.559825 220.778096 
L 368.867672 221.266079 
L 369.137039 221.181805 
L 369.406405 220.954159 
L 369.791214 221.107254 
L 370.291466 221.42983 
L 370.483871 221.345615 
L 370.753237 220.884329 
L 371.022603 220.506886 
L 371.599817 221.307293 
L 371.907664 221.133929 
L 372.292473 220.222448 
L 372.369435 220.319245 
L 373.023611 221.444306 
L 373.216015 221.29724 
L 373.523862 221.081458 
L 373.716267 221.217204 
L 373.870191 221.205778 
L 374.101076 220.720855 
L 374.216519 220.543515 
L 374.255 220.55995 
L 374.524366 221.154571 
L 374.793732 221.466761 
L 375.370946 221.423195 
L 375.755755 221.511646 
L 376.025121 221.499008 
L 376.525373 221.024341 
L 376.833221 220.320254 
L 376.871701 220.347554 
L 377.179549 221.082791 
L 377.410434 221.48775 
L 377.564358 221.363498 
L 377.833724 221.15687 
L 378.4879 221.539756 
L 380.142579 221.527253 
L 380.527388 221.337117 
L 380.719792 221.273058 
L 381.02764 221.062315 
L 381.258525 221.309938 
L 381.527891 221.485016 
L 381.720296 221.371145 
L 381.989662 221.217339 
L 382.643838 221.5791 
L 382.874723 221.436099 
L 383.259532 221.065218 
L 383.56738 221.207692 
L 383.759784 220.77131 
L 383.913708 220.513335 
L 383.952189 220.535866 
L 384.41396 221.078651 
L 384.567883 221.161855 
L 384.83725 221.367025 
L 385.145097 221.374316 
L 385.491425 221.581759 
L 386.376486 221.605672 
L 388.146608 221.563056 
L 388.68534 221.613269 
L 390.186096 221.506377 
L 390.917233 221.09639 
L 391.071157 221.188079 
L 391.455966 221.566676 
L 391.956218 221.600978 
L 394.072668 221.399311 
L 394.265072 220.847477 
L 394.572919 219.866339 
L 394.6114 219.876866 
L 394.765324 220.254801 
L 395.111652 221.105477 
L 395.227095 221.13693 
L 395.381018 221.035973 
L 395.650385 221.131102 
L 395.958232 221.222873 
L 396.189118 220.990192 
L 396.381522 220.919276 
L 397.15114 221.498112 
L 397.420507 221.29598 
L 397.612911 220.870818 
L 397.882278 220.335495 
L 397.99772 220.395931 
L 398.344048 220.777055 
L 398.382529 220.747642 
L 398.574934 220.640261 
L 398.767338 220.975413 
L 399.075186 221.382935 
L 399.344552 221.36418 
L 399.844804 221.178307 
L 400.075689 221.209211 
L 400.383537 221.160882 
L 400.691384 221.219815 
L 401.191636 221.2659 
L 401.576445 221.543408 
L 401.999735 221.585172 
L 402.538467 221.541939 
L 402.807834 221.278679 
L 403.115681 220.992264 
L 403.962261 221.59464 
L 405.155169 221.51809 
L 405.386055 221.168903 
L 405.655421 220.829594 
L 405.847826 221.135774 
L 406.155673 221.517674 
L 406.540482 221.604372 
L 407.540986 221.509523 
L 407.925795 221.365301 
L 408.272123 221.4695 
L 409.080222 221.477551 
L 409.580474 221.598908 
L 409.926802 221.495145 
L 410.196168 221.148226 
L 410.465535 220.826655 
L 410.657939 221.096811 
L 411.004267 221.458254 
L 411.466038 221.515177 
L 411.773886 221.490909 
L 411.96629 221.515848 
L 412.235656 221.46741 
L 412.466542 221.472506 
L 412.697427 221.128583 
L 413.005275 220.644915 
L 413.428565 221.13743 
L 413.697931 221.499173 
L 414.159702 221.589865 
L 416.19919 221.629091 
L 417.199694 221.629091 
L 417.199694 221.629091 
" clip-path="url(#pe1f68bf764)" style="fill: none; stroke: #44bf70; stroke-linecap: square"/>
   </g>
  </g>
  <g id="axes_2">
   <g id="patch_3">
    <path d="M 69.854239 249.12 
L 369.374239 249.12 
L 369.374239 24.48 
L 69.854239 24.48 
L 69.854239 249.12 
z
" style="fill: none; opacity: 0"/>
   </g>
   <g id="matplotlib.axis_3"/>
   <g id="matplotlib.axis_4"/>
   <g id="line2d_2">
    <path d="M 83.468785 238.909091 
L 84.54625 238.838437 
L 84.738655 238.622855 
L 84.96954 238.598332 
L 85.123464 238.337415 
L 85.161945 238.370934 
L 85.508273 238.898079 
L 86.547257 238.904757 
L 86.932066 238.813091 
L 87.316875 238.502511 
L 87.817127 238.901307 
L 88.740669 238.85037 
L 89.125478 238.715141 
L 89.433325 238.899103 
L 90.8956 238.903797 
L 97.629759 238.909091 
L 105.095055 238.804958 
L 105.325941 238.79021 
L 105.787712 238.893349 
L 106.942139 238.802285 
L 107.288467 238.667643 
L 107.634795 238.898681 
L 108.058085 238.83756 
L 108.442894 238.566179 
L 108.481375 238.620648 
L 108.789222 238.890534 
L 109.751245 238.90399 
L 111.367443 238.79392 
L 111.521367 238.744482 
L 111.829214 238.904662 
L 112.598832 238.830568 
L 112.945161 238.639567 
L 113.368451 238.898571 
L 114.522878 238.848311 
L 114.715282 238.644382 
L 114.907687 238.582355 
L 115.177053 238.668031 
L 115.44642 238.89191 
L 115.754267 238.844209 
L 116.369961 238.376153 
L 116.485404 238.212123 
L 116.831732 238.825034 
L 116.908694 238.753266 
L 117.101099 238.488463 
L 117.13958 238.534674 
L 117.447427 238.8945 
L 117.98616 238.878545 
L 118.178564 238.685822 
L 118.40945 238.492797 
L 118.601854 238.508883 
L 118.794259 238.242926 
L 118.83274 238.313099 
L 119.140587 238.859508 
L 119.563877 238.899872 
L 120.487419 238.81357 
L 120.679823 238.671606 
L 120.910709 238.333346 
L 120.94919 238.367822 
L 121.37248 238.890424 
L 122.25754 238.906104 
L 123.065639 238.817939 
L 123.296525 238.693465 
L 123.488929 238.727045 
L 123.719815 238.672293 
L 123.989181 238.884648 
L 125.297532 238.777324 
L 125.451456 238.725818 
L 125.720822 238.839528 
L 126.105631 238.907074 
L 129.145623 238.871769 
L 129.45347 238.577893 
L 129.530432 238.702412 
L 129.761318 238.873671 
L 130.646378 238.905997 
L 133.378523 238.717176 
L 133.493966 238.498972 
L 133.532447 238.517749 
L 133.724851 238.635052 
L 133.878775 238.517835 
L 133.994218 238.323388 
L 134.032698 238.341475 
L 134.186622 238.584305 
L 134.225103 238.559909 
L 134.340546 238.520828 
L 134.609912 238.86732 
L 135.571935 238.70197 
L 135.841301 238.802621 
L 135.995225 238.537394 
L 136.264591 237.782735 
L 136.303072 237.857301 
L 136.726362 238.874832 
L 137.07269 238.842913 
L 137.572942 238.528441 
L 137.611423 238.589239 
L 137.765347 238.760755 
L 137.803827 238.731285 
L 137.957751 238.678802 
L 138.150156 238.744422 
L 138.381041 238.498363 
L 138.419522 238.539679 
L 138.727369 238.833063 
L 139.304583 238.531862 
L 139.496987 238.549609 
L 139.650911 238.702221 
L 139.920277 238.837431 
L 140.151163 238.84713 
L 140.343567 238.657027 
L 140.766857 237.888603 
L 140.843819 237.961925 
L 141.228628 238.71075 
L 141.497995 238.890255 
L 141.805842 238.78825 
L 141.998247 238.794701 
L 142.190651 238.783097 
L 142.383056 238.344035 
L 142.460017 238.231785 
L 142.498498 238.271453 
L 142.883307 238.890183 
L 143.191155 238.833986 
L 143.383559 238.570227 
L 143.499002 238.476902 
L 143.883811 238.872768 
L 145.192162 238.862367 
L 145.423047 238.84043 
L 145.53849 238.62842 
L 145.807856 237.461478 
L 145.884818 237.605361 
L 146.192666 238.674621 
L 146.308108 238.53469 
L 146.462032 237.83102 
L 146.80836 234.168395 
L 146.885322 234.707191 
L 147.23165 237.846896 
L 147.501016 238.798318 
L 147.731902 238.888975 
L 148.386077 238.9036 
L 149.194176 238.822168 
L 149.3481 238.577678 
L 149.502024 238.31793 
L 149.540505 238.353847 
L 149.732909 238.582534 
L 149.848352 238.242068 
L 150.425565 234.690728 
L 150.502527 235.212017 
L 150.887336 238.598231 
L 151.079741 238.829947 
L 151.233665 238.679709 
L 151.46455 238.314162 
L 151.503031 238.365617 
L 151.810878 238.807666 
L 151.964802 238.655348 
L 152.195687 238.372704 
L 152.465054 238.674285 
L 152.503535 238.619192 
L 152.73442 237.88542 
L 152.811382 238.079894 
L 153.080748 238.862935 
L 153.388595 238.905316 
L 156.813396 238.845764 
L 156.928839 238.589155 
L 157.159724 237.57011 
L 157.198205 237.610795 
L 157.736938 238.905861 
L 159.08377 238.850596 
L 159.199213 238.592701 
L 159.430098 237.257604 
L 159.50706 237.506493 
L 159.776426 238.585488 
L 160.084274 238.89809 
L 161.007815 238.88939 
L 161.238701 238.719396 
L 161.469586 238.528419 
L 161.969838 238.903108 
L 164.548059 238.890882 
L 166.164257 238.654619 
L 166.395143 238.62959 
L 167.010837 238.903136 
L 175.16879 238.860526 
L 175.515118 238.855433 
L 176.01537 238.903897 
L 176.631064 238.788115 
L 176.938911 238.571533 
L 177.593087 238.906658 
L 179.324728 238.820375 
L 180.017384 238.623873 
L 180.402193 238.850806 
L 180.825483 238.88754 
L 181.479659 238.900788 
L 182.249277 238.804197 
L 182.441681 238.756765 
L 182.634086 238.832068 
L 182.749529 238.536638 
L 182.941933 237.629772 
L 182.980414 237.656062 
L 183.480666 238.899305 
L 183.903956 238.804166 
L 184.09636 238.814346 
L 184.365727 238.880167 
L 184.827498 238.788811 
L 185.019902 238.698835 
L 185.250788 238.601071 
L 185.635597 238.905567 
L 186.405215 238.842231 
L 186.713062 238.479641 
L 186.790024 238.608811 
L 186.982429 238.786418 
L 187.174833 238.746364 
L 187.4442 238.900849 
L 187.636604 238.802719 
L 187.982932 238.346163 
L 188.059894 238.458369 
L 188.32926 238.857414 
L 188.598627 238.867108 
L 188.867993 238.810647 
L 189.060398 238.836194 
L 189.329764 238.675768 
L 189.637611 238.768716 
L 190.060901 238.814554 
L 190.522672 238.830793 
L 191.176848 238.757648 
L 191.446214 238.892449 
L 191.831023 238.839841 
L 192.061909 238.886147 
L 192.292794 238.855094 
L 192.56216 238.766468 
L 192.831527 238.876543 
L 193.100893 238.767648 
L 193.370259 238.626888 
L 193.639626 238.789743 
L 194.024435 238.488477 
L 194.062916 238.543082 
L 194.293801 238.731822 
L 194.717091 238.419407 
L 194.871015 238.160588 
L 194.909496 238.185125 
L 195.371267 238.829457 
L 195.679114 238.846982 
L 195.909999 238.622305 
L 196.063923 238.560537 
L 196.448732 238.836369 
L 196.602656 238.600476 
L 196.872022 237.697138 
L 196.910503 237.784952 
L 197.141388 238.456219 
L 197.179869 238.407605 
L 197.410755 238.078399 
L 197.449236 238.103555 
L 197.795564 238.396546 
L 197.911007 238.195455 
L 198.06493 237.902163 
L 198.103411 237.94299 
L 198.411258 238.589128 
L 198.449739 238.553118 
L 198.642144 237.963037 
L 198.834548 237.655789 
L 198.949991 237.825233 
L 199.257838 238.478257 
L 199.296319 238.457858 
L 199.681128 238.046648 
L 199.950495 238.328211 
L 199.988976 238.24615 
L 200.142899 237.304131 
L 200.219861 237.001074 
L 200.258342 237.033685 
L 200.489228 238.003389 
L 200.527708 237.912378 
L 200.758594 237.051964 
L 200.797075 237.13009 
L 201.374288 238.758278 
L 201.528212 238.791655 
L 201.682136 238.549058 
L 201.951502 237.748495 
L 201.989983 237.783251 
L 202.182388 237.998753 
L 202.29783 237.903153 
L 202.336311 237.936309 
L 202.644158 238.482602 
L 202.682639 238.459337 
L 203.336815 237.631572 
L 203.606181 236.549159 
L 203.721624 236.657502 
L 203.837067 236.879633 
L 204.029471 237.602751 
L 204.067952 237.454822 
L 204.183395 235.660119 
L 204.375799 224.669298 
L 204.529723 217.221606 
L 204.568204 217.704243 
L 204.760608 229.634967 
L 204.914532 234.722783 
L 204.953013 234.505989 
L 205.145417 231.321013 
L 205.183898 231.5158 
L 205.337822 233.416194 
L 205.376303 232.974907 
L 205.453265 225.268098 
L 205.607188 140.676114 
L 205.761112 34.690909 
L 205.799593 36.613766 
L 205.953517 144.770959 
L 206.145921 226.952849 
L 206.222883 232.464171 
L 206.299845 231.521062 
L 206.569211 220.973859 
L 206.646173 222.142447 
L 206.877058 229.994249 
L 206.915539 229.86497 
L 207.146425 227.175193 
L 207.37731 214.84083 
L 207.454272 216.27443 
L 207.646677 226.343654 
L 207.685157 226.017218 
L 207.839081 222.999996 
L 207.877562 223.625932 
L 208.262371 233.313835 
L 208.300852 233.300334 
L 208.608699 231.776631 
L 208.64718 231.890938 
L 208.801104 233.916005 
L 208.916547 234.752589 
L 208.955027 234.731973 
L 209.031989 234.619291 
L 209.07047 234.691105 
L 209.147432 234.799778 
L 209.224394 234.978067 
L 209.262875 234.808684 
L 209.378317 232.999261 
L 209.609203 225.036593 
L 209.647684 225.466173 
L 210.109455 235.491732 
L 210.263378 235.540121 
L 210.417302 234.695411 
L 210.455783 234.547239 
L 210.494264 234.560431 
L 210.802111 236.388734 
L 210.879073 236.210197 
L 211.18692 234.950421 
L 211.302363 235.196232 
L 211.533248 235.699338 
L 211.725653 235.691383 
L 211.918057 236.543989 
L 212.0335 237.078222 
L 212.071981 237.058197 
L 212.495271 235.888355 
L 212.610714 235.480727 
L 212.649195 235.533675 
L 213.034004 236.963126 
L 213.072485 236.911192 
L 213.226408 236.843844 
L 213.572736 237.771819 
L 213.649698 237.561463 
L 213.842103 237.015572 
L 213.996026 237.033905 
L 214.226912 236.901941 
L 214.380836 236.031493 
L 214.419316 236.080368 
L 214.919568 238.332899 
L 214.99653 238.18633 
L 215.227416 237.299176 
L 215.265896 237.379591 
L 215.41982 237.764607 
L 215.535263 237.145954 
L 215.727667 236.11371 
L 215.804629 236.439267 
L 216.112476 238.61035 
L 216.150957 238.594865 
L 216.304881 238.164085 
L 216.420324 237.999455 
L 216.458805 238.050531 
L 216.766652 238.331673 
L 216.920576 238.306311 
L 217.151461 237.563626 
L 217.228423 237.672172 
L 217.459308 238.171921 
L 217.574751 237.951862 
L 217.844117 236.84483 
L 217.921079 236.989546 
L 218.38285 238.866084 
L 218.498293 238.801006 
L 219.037025 237.611324 
L 219.152468 237.383312 
L 219.190949 237.418701 
L 219.383354 237.685715 
L 219.65272 237.359861 
L 219.691201 237.40289 
L 220.114491 238.104027 
L 220.268415 238.217544 
L 220.460819 238.338141 
L 220.614743 237.961848 
L 220.807147 237.670167 
L 220.92259 237.594302 
L 221.307399 236.626723 
L 221.461323 233.661452 
L 221.730689 225.47943 
L 221.76917 225.538425 
L 221.884613 228.229611 
L 222.115498 233.416575 
L 222.19246 233.375331 
L 222.269422 233.165348 
L 222.307903 233.208207 
L 222.346384 233.328914 
L 222.384865 233.254404 
L 222.461826 231.666693 
L 222.577269 219.448015 
L 222.692712 179.322147 
L 222.923597 62.558499 
L 222.962078 64.259573 
L 223.116002 141.449445 
L 223.346887 224.6168 
L 223.46233 230.129803 
L 223.500811 229.716488 
L 223.731696 224.203379 
L 223.808658 225.25025 
L 224.039544 231.662294 
L 224.078025 231.619594 
L 224.116505 231.529328 
L 224.30891 228.8388 
L 224.578276 217.296947 
L 224.655238 219.91586 
L 224.847643 229.0708 
L 224.886124 228.971797 
L 225.078528 224.874966 
L 225.15549 225.791766 
L 225.386375 230.579627 
L 225.57878 231.409849 
L 225.694223 231.150806 
L 225.771184 230.998143 
L 225.809665 231.132959 
L 226.386879 235.101177 
L 226.42536 235.026045 
L 226.540803 232.95854 
L 226.771688 223.04126 
L 226.84865 224.278855 
L 227.194978 235.279197 
L 227.310421 235.590103 
L 227.348902 235.568715 
L 227.502825 234.827819 
L 227.579787 234.509667 
L 227.618268 234.533667 
L 227.772192 235.519608 
L 228.041558 236.608432 
L 228.11852 236.753968 
L 228.157001 236.722226 
L 228.233963 236.40938 
L 228.426367 235.14561 
L 228.464848 235.189282 
L 228.734214 235.943692 
L 228.811176 236.064694 
L 228.926619 236.289722 
L 228.9651 236.273265 
L 229.119024 236.117676 
L 229.157504 236.147278 
L 229.426871 236.743139 
L 229.619275 237.319499 
L 229.734718 236.933482 
L 229.888642 236.426721 
L 230.004084 237.06921 
L 230.158008 237.78375 
L 230.196489 237.747683 
L 230.65826 236.460481 
L 231.08155 237.014839 
L 231.120031 236.967333 
L 231.466359 236.427641 
L 231.658763 236.913271 
L 231.889649 237.517914 
L 231.966611 237.439921 
L 232.082053 237.428778 
L 232.505343 238.10829 
L 232.620786 237.56409 
L 232.851672 235.920774 
L 232.890153 236.044803 
L 233.274962 238.539392 
L 233.313443 238.51748 
L 233.467366 238.022585 
L 233.736733 237.163762 
L 233.852175 237.316885 
L 234.006099 237.438321 
L 234.236984 237.404357 
L 234.429389 237.451705 
L 234.660274 237.820569 
L 234.852679 237.592756 
L 234.89116 237.63618 
L 235.31445 238.366226 
L 235.660778 238.005731 
L 235.699259 238.088053 
L 235.968625 238.658819 
L 236.699763 238.186627 
L 236.853686 237.954555 
L 236.892167 237.995344 
L 237.200014 238.404715 
L 237.4309 238.03956 
L 237.507862 238.163583 
L 237.738747 238.467852 
L 237.892671 238.492185 
L 238.200518 238.764218 
L 238.662289 238.74116 
L 238.893174 238.580684 
L 239.277983 238.676408 
L 239.393426 238.427659 
L 239.54735 238.08449 
L 239.585831 238.1588 
L 239.97064 238.887486 
L 240.971143 238.895082 
L 241.317472 238.787248 
L 241.586838 238.655055 
L 242.08709 238.902876 
L 246.820241 238.904534 
L 249.398462 238.809902 
L 250.1296 238.866512 
L 250.937699 238.589304 
L 251.245546 238.622464 
L 251.39947 238.341233 
L 251.630355 237.813813 
L 251.668836 237.83112 
L 251.82276 238.182968 
L 252.092126 238.665925 
L 252.24605 238.569186 
L 252.476935 238.429651 
L 252.823263 238.492722 
L 253.015668 238.426279 
L 253.631362 238.793508 
L 253.93921 238.846088 
L 254.516423 238.896984 
L 255.439965 238.901922 
L 257.941224 238.792016 
L 258.095148 238.426899 
L 258.441476 236.764848 
L 258.518438 236.856615 
L 258.749323 238.103069 
L 258.980209 238.808259 
L 259.211094 238.900088 
L 261.519949 238.892033 
L 262.674376 238.898849 
L 263.213109 238.762283 
L 263.520956 238.690388 
L 264.021208 238.904482 
L 265.752848 238.812727 
L 265.983734 238.828407 
L 266.368543 238.885991 
L 267.061199 238.866509 
L 267.561451 238.825463 
L 268.408031 238.902942 
L 270.447519 238.853392 
L 270.793848 238.859134 
L 271.409542 238.869501 
L 271.678908 238.699489 
L 271.948275 238.517374 
L 272.563969 238.893288 
L 275.103709 238.900795 
L 276.527503 238.870097 
L 277.027755 238.796098 
L 277.912816 238.565771 
L 278.143701 238.541217 
L 278.52851 238.221323 
L 278.797876 237.948015 
L 278.990281 238.332312 
L 279.298128 238.813885 
L 279.567495 238.84424 
L 279.836861 238.711545 
L 280.260151 238.160508 
L 280.337113 238.23467 
L 280.837365 238.84184 
L 281.760906 238.786513 
L 282.068754 238.752102 
L 282.838372 238.866 
L 283.030776 238.623513 
L 283.261662 238.305229 
L 283.569509 238.550869 
L 283.723433 238.581511 
L 284.108242 238.896057 
L 284.916341 238.853408 
L 285.30115 238.715823 
L 285.647478 238.896053 
L 287.4176 238.883689 
L 287.648485 238.745088 
L 287.879371 238.570575 
L 288.26418 238.834526 
L 288.572027 238.709067 
L 288.802913 238.385162 
L 288.841394 238.420195 
L 289.264684 238.900111 
L 290.188225 238.855773 
L 290.573035 238.612986 
L 290.611515 238.667587 
L 290.880882 238.886378 
L 291.458095 238.890677 
L 292.150752 238.776586 
L 292.49708 238.143948 
L 292.651004 238.048923 
L 292.843408 238.273712 
L 293.228217 238.853627 
L 293.574545 238.895363 
L 293.882393 238.766216 
L 294.074797 238.74167 
L 294.652011 238.893831 
L 295.03682 238.798654 
L 295.306186 238.569954 
L 295.421629 237.982101 
L 295.614034 235.264574 
L 295.844919 232.122115 
L 295.8834 232.19456 
L 295.998843 233.509292 
L 296.383652 238.474911 
L 296.576056 238.86267 
L 296.960865 238.904906 
L 297.461117 238.790323 
L 297.884407 238.522118 
L 298.307697 238.890303 
L 298.884911 238.888638 
L 299.077315 238.731676 
L 299.26972 238.560446 
L 299.308201 238.590402 
L 299.577567 238.795406 
L 299.731491 238.713344 
L 299.923895 238.185005 
L 300.1163 237.102037 
L 300.462628 233.507323 
L 300.53959 233.790271 
L 301.116803 238.603434 
L 301.424651 238.848644 
L 301.694017 238.883913 
L 301.924903 238.693316 
L 302.078826 238.666273 
L 302.271231 238.744058 
L 302.694521 238.491589 
L 303.040849 238.748662 
L 303.310215 238.65501 
L 303.579582 238.748285 
L 303.771986 238.702367 
L 304.079833 238.79067 
L 304.272238 238.480069 
L 304.541604 238.036652 
L 304.926413 238.404039 
L 305.157299 238.642782 
L 305.426665 238.637126 
L 305.772993 238.434169 
L 306.196283 237.750884 
L 306.350207 238.042575 
L 306.696535 238.66739 
L 306.850459 238.572898 
L 307.004382 238.537742 
L 307.235268 238.622485 
L 307.427672 238.601475 
L 307.73552 238.692457 
L 308.043367 238.728268 
L 308.235772 238.714282 
L 308.812985 238.235181 
L 309.197794 238.139885 
L 309.42868 237.985713 
L 310.005893 238.743425 
L 310.159817 238.649049 
L 310.352222 238.54451 
L 310.621588 238.570382 
L 310.775512 238.435575 
L 311.12184 237.927018 
L 311.160321 237.975552 
L 311.699053 238.77905 
L 311.929939 238.735648 
L 312.199305 238.786032 
L 312.353229 238.736511 
L 312.661076 238.131719 
L 312.776519 238.2916 
L 313.084366 238.790457 
L 313.815503 238.854691 
L 314.123351 238.778879 
L 314.546641 238.801649 
L 315.123854 238.786192 
L 315.431701 238.844121 
L 316.008915 238.618885 
L 316.20132 238.585029 
L 316.740052 238.8728 
L 317.432709 238.864574 
L 317.740556 238.682805 
L 318.163846 238.115465 
L 318.202327 238.166196 
L 318.818021 238.792644 
L 319.549159 238.876048 
L 320.04941 238.867118 
L 320.549662 238.902142 
L 321.781051 238.762016 
L 322.011937 238.688203 
L 322.473708 238.902216 
L 326.552684 238.855456 
L 326.82205 238.81133 
L 327.129898 238.83782 
L 327.322302 238.587046 
L 327.707111 237.692989 
L 327.745592 237.722491 
L 328.09192 238.430772 
L 328.322806 238.837994 
L 328.51521 238.840774 
L 328.976981 238.603365 
L 329.438752 238.893518 
L 330.708622 238.884508 
L 332.209378 238.816664 
L 332.902034 238.628247 
L 333.248362 238.587637 
L 333.440767 238.521747 
L 333.748614 238.372723 
L 333.864057 238.250775 
L 334.287347 237.686976 
L 334.595194 238.269299 
L 334.903041 238.566297 
L 335.210888 238.729963 
L 336.057468 238.48544 
L 336.288354 238.361117 
L 336.788606 238.761897 
L 337.211896 238.563641 
L 337.481262 238.426216 
L 338.635689 238.870339 
L 338.828094 238.708665 
L 339.09746 238.445851 
L 339.52075 238.536277 
L 339.713155 238.46961 
L 340.213407 238.888911 
L 342.098971 238.891561 
L 344.908077 238.740281 
L 345.254406 238.168845 
L 345.292887 238.212328 
L 345.408329 238.281792 
L 345.44681 238.251076 
L 345.716177 237.680573 
L 345.793138 237.808252 
L 346.177947 238.695788 
L 347.293894 238.899463 
L 348.063512 238.790478 
L 348.486802 238.611514 
L 348.679206 238.697987 
L 348.910092 238.760855 
L 349.140977 238.50106 
L 349.371863 238.114782 
L 349.410344 238.138719 
L 349.987557 238.896068 
L 350.256924 238.776714 
L 350.449328 238.735024 
L 351.065023 238.864808 
L 351.257427 238.716829 
L 351.449832 238.612786 
L 351.911603 238.901293 
L 352.488816 238.82457 
L 352.835145 238.605039 
L 353.450839 238.901447 
L 355.759694 238.909091 
L 355.759694 238.909091 
" clip-path="url(#p03139d13ea)" style="fill: none; stroke: #2f6c8e; stroke-linecap: square"/>
   </g>
  </g>
  <g id="axes_3">
   <g id="patch_4">
    <path d="M 8.414239 266.4 
L 307.934239 266.4 
L 307.934239 41.76 
L 8.414239 41.76 
L 8.414239 266.4 
z
" style="fill: none; opacity: 0"/>
   </g>
   <g id="matplotlib.axis_5">
    <g id="xtick_1">
     <g id="line2d_3">
      <defs>
       <path id="m77d687c3fb" d="M 0 0 
L 0 3.5 
" style="stroke: #000000; stroke-width: 0.8"/>
      </defs>
      <g>
       <use xlink:href="#m77d687c3fb" x="23.10625" y="266.4" style="stroke: #000000; stroke-width: 0.8"/>
      </g>
     </g>
     <g id="text_1">
      <!-- 10000 -->
      <g transform="translate(7.2 280.998437) scale(0.1 -0.1)">
       <defs>
        <path id="DejaVuSerif-31" d="M 909 0 
L 909 331 
L 1722 331 
L 1722 4213 
L 781 3603 
L 781 4013 
L 1919 4750 
L 2350 4750 
L 2350 331 
L 3163 331 
L 3163 0 
L 909 0 
z
" transform="scale(0.015625)"/>
        <path id="DejaVuSerif-30" d="M 2034 219 
Q 2513 219 2750 744 
Q 2988 1269 2988 2328 
Q 2988 3391 2750 3916 
Q 2513 4441 2034 4441 
Q 1556 4441 1318 3916 
Q 1081 3391 1081 2328 
Q 1081 1269 1318 744 
Q 1556 219 2034 219 
z
M 2034 -91 
Q 1275 -91 848 546 
Q 422 1184 422 2328 
Q 422 3475 848 4112 
Q 1275 4750 2034 4750 
Q 2797 4750 3222 4112 
Q 3647 3475 3647 2328 
Q 3647 1184 3222 546 
Q 2797 -91 2034 -91 
z
" transform="scale(0.015625)"/>
       </defs>
       <use xlink:href="#DejaVuSerif-31"/>
       <use xlink:href="#DejaVuSerif-30" x="63.623047"/>
       <use xlink:href="#DejaVuSerif-30" x="127.246094"/>
       <use xlink:href="#DejaVuSerif-30" x="190.869141"/>
       <use xlink:href="#DejaVuSerif-30" x="254.492188"/>
      </g>
     </g>
    </g>
    <g id="xtick_2">
     <g id="line2d_4">
      <g>
       <use xlink:href="#m77d687c3fb" x="61.587159" y="266.4" style="stroke: #000000; stroke-width: 0.8"/>
      </g>
     </g>
     <g id="text_2">
      <!-- 11000 -->
      <g transform="translate(45.680909 280.998437) scale(0.1 -0.1)">
       <use xlink:href="#DejaVuSerif-31"/>
       <use xlink:href="#DejaVuSerif-31" x="63.623047"/>
       <use xlink:href="#DejaVuSerif-30" x="127.246094"/>
       <use xlink:href="#DejaVuSerif-30" x="190.869141"/>
       <use xlink:href="#DejaVuSerif-30" x="254.492188"/>
      </g>
     </g>
    </g>
    <g id="xtick_3">
     <g id="line2d_5">
      <g>
       <use xlink:href="#m77d687c3fb" x="100.068067" y="266.4" style="stroke: #000000; stroke-width: 0.8"/>
      </g>
     </g>
     <g id="text_3">
      <!-- 12000 -->
      <g transform="translate(84.161817 280.998437) scale(0.1 -0.1)">
       <defs>
        <path id="DejaVuSerif-32" d="M 819 3553 
L 469 3553 
L 469 4384 
Q 803 4563 1142 4656 
Q 1481 4750 1806 4750 
Q 2534 4750 2956 4397 
Q 3378 4044 3378 3438 
Q 3378 2753 2422 1800 
Q 2347 1728 2309 1691 
L 1131 513 
L 3078 513 
L 3078 1088 
L 3444 1088 
L 3444 0 
L 434 0 
L 434 341 
L 1850 1753 
Q 2319 2222 2519 2614 
Q 2719 3006 2719 3438 
Q 2719 3909 2473 4175 
Q 2228 4441 1797 4441 
Q 1350 4441 1106 4219 
Q 863 3997 819 3553 
z
" transform="scale(0.015625)"/>
       </defs>
       <use xlink:href="#DejaVuSerif-31"/>
       <use xlink:href="#DejaVuSerif-32" x="63.623047"/>
       <use xlink:href="#DejaVuSerif-30" x="127.246094"/>
       <use xlink:href="#DejaVuSerif-30" x="190.869141"/>
       <use xlink:href="#DejaVuSerif-30" x="254.492188"/>
      </g>
     </g>
    </g>
    <g id="xtick_4">
     <g id="line2d_6">
      <g>
       <use xlink:href="#m77d687c3fb" x="138.548976" y="266.4" style="stroke: #000000; stroke-width: 0.8"/>
      </g>
     </g>
     <g id="text_4">
      <!-- 13000 -->
      <g transform="translate(122.642726 280.998437) scale(0.1 -0.1)">
       <defs>
        <path id="DejaVuSerif-33" d="M 622 4469 
Q 988 4606 1323 4678 
Q 1659 4750 1953 4750 
Q 2638 4750 3022 4454 
Q 3406 4159 3406 3634 
Q 3406 3213 3140 2930 
Q 2875 2647 2388 2547 
Q 2963 2466 3280 2130 
Q 3597 1794 3597 1259 
Q 3597 606 3158 257 
Q 2719 -91 1894 -91 
Q 1528 -91 1179 -12 
Q 831 66 488 225 
L 488 1131 
L 838 1131 
Q 869 681 1141 450 
Q 1413 219 1906 219 
Q 2384 219 2661 495 
Q 2938 772 2938 1253 
Q 2938 1803 2653 2086 
Q 2369 2369 1819 2369 
L 1522 2369 
L 1522 2688 
L 1678 2688 
Q 2225 2688 2498 2914 
Q 2772 3141 2772 3597 
Q 2772 4006 2547 4223 
Q 2322 4441 1900 4441 
Q 1478 4441 1245 4241 
Q 1013 4041 972 3647 
L 622 3647 
L 622 4469 
z
" transform="scale(0.015625)"/>
       </defs>
       <use xlink:href="#DejaVuSerif-31"/>
       <use xlink:href="#DejaVuSerif-33" x="63.623047"/>
       <use xlink:href="#DejaVuSerif-30" x="127.246094"/>
       <use xlink:href="#DejaVuSerif-30" x="190.869141"/>
       <use xlink:href="#DejaVuSerif-30" x="254.492188"/>
      </g>
     </g>
    </g>
    <g id="xtick_5">
     <g id="line2d_7">
      <g>
       <use xlink:href="#m77d687c3fb" x="177.029884" y="266.4" style="stroke: #000000; stroke-width: 0.8"/>
      </g>
     </g>
     <g id="text_5">
      <!-- 14000 -->
      <g transform="translate(161.123634 280.998437) scale(0.1 -0.1)">
       <defs>
        <path id="DejaVuSerif-34" d="M 2234 1581 
L 2234 4063 
L 641 1581 
L 2234 1581 
z
M 3609 0 
L 1484 0 
L 1484 331 
L 2234 331 
L 2234 1247 
L 197 1247 
L 197 1588 
L 2241 4750 
L 2859 4750 
L 2859 1581 
L 3750 1581 
L 3750 1247 
L 2859 1247 
L 2859 331 
L 3609 331 
L 3609 0 
z
" transform="scale(0.015625)"/>
       </defs>
       <use xlink:href="#DejaVuSerif-31"/>
       <use xlink:href="#DejaVuSerif-34" x="63.623047"/>
       <use xlink:href="#DejaVuSerif-30" x="127.246094"/>
       <use xlink:href="#DejaVuSerif-30" x="190.869141"/>
       <use xlink:href="#DejaVuSerif-30" x="254.492188"/>
      </g>
     </g>
    </g>
    <g id="xtick_6">
     <g id="line2d_8">
      <g>
       <use xlink:href="#m77d687c3fb" x="215.510793" y="266.4" style="stroke: #000000; stroke-width: 0.8"/>
      </g>
     </g>
     <g id="text_6">
      <!-- 15000 -->
      <g transform="translate(199.604543 280.998437) scale(0.1 -0.1)">
       <defs>
        <path id="DejaVuSerif-35" d="M 3219 4666 
L 3219 4153 
L 1081 4153 
L 1081 2816 
Q 1244 2928 1461 2984 
Q 1678 3041 1947 3041 
Q 2703 3041 3140 2622 
Q 3578 2203 3578 1478 
Q 3578 738 3136 323 
Q 2694 -91 1894 -91 
Q 1572 -91 1234 -12 
Q 897 66 544 225 
L 544 1131 
L 897 1131 
Q 925 688 1179 453 
Q 1434 219 1894 219 
Q 2388 219 2653 544 
Q 2919 869 2919 1478 
Q 2919 2084 2655 2407 
Q 2391 2731 1894 2731 
Q 1613 2731 1398 2631 
Q 1184 2531 1019 2322 
L 750 2322 
L 750 4666 
L 3219 4666 
z
" transform="scale(0.015625)"/>
       </defs>
       <use xlink:href="#DejaVuSerif-31"/>
       <use xlink:href="#DejaVuSerif-35" x="63.623047"/>
       <use xlink:href="#DejaVuSerif-30" x="127.246094"/>
       <use xlink:href="#DejaVuSerif-30" x="190.869141"/>
       <use xlink:href="#DejaVuSerif-30" x="254.492188"/>
      </g>
     </g>
    </g>
    <g id="xtick_7">
     <g id="line2d_9">
      <g>
       <use xlink:href="#m77d687c3fb" x="253.991701" y="266.4" style="stroke: #000000; stroke-width: 0.8"/>
      </g>
     </g>
     <g id="text_7">
      <!-- 16000 -->
      <g transform="translate(238.085451 280.998437) scale(0.1 -0.1)">
       <defs>
        <path id="DejaVuSerif-36" d="M 2094 219 
Q 2534 219 2771 542 
Q 3009 866 3009 1472 
Q 3009 2078 2771 2401 
Q 2534 2725 2094 2725 
Q 1647 2725 1412 2412 
Q 1178 2100 1178 1509 
Q 1178 888 1415 553 
Q 1653 219 2094 219 
z
M 1075 2569 
Q 1288 2803 1556 2918 
Q 1825 3034 2163 3034 
Q 2859 3034 3264 2615 
Q 3669 2197 3669 1472 
Q 3669 763 3233 336 
Q 2797 -91 2069 -91 
Q 1278 -91 853 498 
Q 428 1088 428 2181 
Q 428 3406 931 4078 
Q 1434 4750 2350 4750 
Q 2597 4750 2869 4703 
Q 3141 4656 3425 4563 
L 3425 3794 
L 3072 3794 
Q 3034 4109 2831 4275 
Q 2628 4441 2284 4441 
Q 1678 4441 1381 3981 
Q 1084 3522 1075 2569 
z
" transform="scale(0.015625)"/>
       </defs>
       <use xlink:href="#DejaVuSerif-31"/>
       <use xlink:href="#DejaVuSerif-36" x="63.623047"/>
       <use xlink:href="#DejaVuSerif-30" x="127.246094"/>
       <use xlink:href="#DejaVuSerif-30" x="190.869141"/>
       <use xlink:href="#DejaVuSerif-30" x="254.492188"/>
      </g>
     </g>
    </g>
    <g id="xtick_8">
     <g id="line2d_10">
      <g>
       <use xlink:href="#m77d687c3fb" x="292.47261" y="266.4" style="stroke: #000000; stroke-width: 0.8"/>
      </g>
     </g>
     <g id="text_8">
      <!-- 17000 -->
      <g transform="translate(276.56636 280.998437) scale(0.1 -0.1)">
       <defs>
        <path id="DejaVuSerif-37" d="M 3609 4347 
L 1784 0 
L 1319 0 
L 3059 4153 
L 903 4153 
L 903 3578 
L 538 3578 
L 538 4666 
L 3609 4666 
L 3609 4347 
z
" transform="scale(0.015625)"/>
       </defs>
       <use xlink:href="#DejaVuSerif-31"/>
       <use xlink:href="#DejaVuSerif-37" x="63.623047"/>
       <use xlink:href="#DejaVuSerif-30" x="127.246094"/>
       <use xlink:href="#DejaVuSerif-30" x="190.869141"/>
       <use xlink:href="#DejaVuSerif-30" x="254.492188"/>
      </g>
     </g>
    </g>
    <g id="text_9">
     <!-- Mass [Da] -->
     <g transform="translate(129.722677 294.676562) scale(0.1 -0.1)">
      <defs>
       <path id="DejaVuSerif-Bold-4d" d="M 269 0 
L 269 378 
L 863 378 
L 863 4288 
L 269 4288 
L 269 4666 
L 2194 4666 
L 3525 1672 
L 4863 4666 
L 6784 4666 
L 6784 4288 
L 6188 4288 
L 6188 378 
L 6784 378 
L 6784 0 
L 4384 0 
L 4384 378 
L 4978 378 
L 4978 3938 
L 3531 684 
L 2741 684 
L 1300 3938 
L 1300 378 
L 1894 378 
L 1894 0 
L 269 0 
z
" transform="scale(0.015625)"/>
       <path id="DejaVuSerif-Bold-61" d="M 3525 2041 
L 3525 378 
L 4000 378 
L 4000 0 
L 2419 0 
L 2419 422 
Q 2200 159 1931 34 
Q 1663 -91 1319 -91 
Q 809 -91 536 182 
Q 263 456 263 966 
Q 263 1525 655 1803 
Q 1047 2081 1838 2081 
L 2419 2081 
L 2419 2278 
Q 2419 2681 2228 2873 
Q 2038 3066 1638 3066 
Q 1306 3066 1126 2930 
Q 947 2794 872 2484 
L 519 2484 
L 519 3200 
Q 816 3306 1134 3359 
Q 1453 3413 1806 3413 
Q 2697 3413 3111 3081 
Q 3525 2750 3525 2041 
z
M 2419 1044 
L 2419 1709 
L 2003 1709 
Q 1694 1709 1528 1540 
Q 1363 1372 1363 1056 
Q 1363 741 1483 584 
Q 1603 428 1850 428 
Q 2106 428 2262 597 
Q 2419 766 2419 1044 
z
" transform="scale(0.015625)"/>
       <path id="DejaVuSerif-Bold-73" d="M 300 97 
L 300 1025 
L 653 1025 
Q 697 653 931 458 
Q 1166 263 1569 263 
Q 1906 263 2086 380 
Q 2266 497 2266 716 
Q 2266 916 2152 1025 
Q 2038 1134 1709 1216 
L 1253 1331 
Q 738 1459 506 1698 
Q 275 1938 275 2344 
Q 275 2884 650 3148 
Q 1025 3413 1806 3413 
Q 2100 3413 2433 3364 
Q 2766 3316 3169 3213 
L 3169 2375 
L 2816 2375 
Q 2788 2716 2573 2887 
Q 2359 3059 1959 3059 
Q 1622 3059 1448 2951 
Q 1275 2844 1275 2638 
Q 1275 2469 1375 2372 
Q 1475 2275 1734 2209 
L 2188 2094 
Q 2841 1928 3091 1684 
Q 3341 1441 3341 1006 
Q 3341 444 2939 176 
Q 2538 -91 1691 -91 
Q 1381 -91 1034 -44 
Q 688 3 300 97 
z
" transform="scale(0.015625)"/>
       <path id="DejaVuSerif-Bold-20" transform="scale(0.015625)"/>
       <path id="DejaVuSerif-Bold-5b" d="M 800 4863 
L 2572 4863 
L 2572 4488 
L 1906 4488 
L 1906 -469 
L 2572 -469 
L 2572 -844 
L 800 -844 
L 800 4863 
z
" transform="scale(0.015625)"/>
       <path id="DejaVuSerif-Bold-44" d="M 2100 378 
L 2534 378 
Q 3266 378 3605 847 
Q 3944 1316 3944 2338 
Q 3944 3353 3606 3820 
Q 3269 4288 2534 4288 
L 2100 4288 
L 2100 378 
z
M 300 0 
L 300 378 
L 897 378 
L 897 4288 
L 300 4288 
L 300 4666 
L 2694 4666 
Q 3950 4666 4615 4066 
Q 5281 3466 5281 2338 
Q 5281 1203 4614 601 
Q 3947 0 2694 0 
L 300 0 
z
" transform="scale(0.015625)"/>
       <path id="DejaVuSerif-Bold-5d" d="M 2228 4863 
L 2228 -844 
L 453 -844 
L 453 -469 
L 1119 -469 
L 1119 4488 
L 453 4488 
L 453 4863 
L 2228 4863 
z
" transform="scale(0.015625)"/>
      </defs>
      <use xlink:href="#DejaVuSerif-Bold-4d"/>
      <use xlink:href="#DejaVuSerif-Bold-61" x="110.693359"/>
      <use xlink:href="#DejaVuSerif-Bold-73" x="175.488281"/>
      <use xlink:href="#DejaVuSerif-Bold-73" x="231.787109"/>
      <use xlink:href="#DejaVuSerif-Bold-20" x="288.085938"/>
      <use xlink:href="#DejaVuSerif-Bold-5b" x="322.900391"/>
      <use xlink:href="#DejaVuSerif-Bold-44" x="370.214844"/>
      <use xlink:href="#DejaVuSerif-Bold-61" x="456.933594"/>
      <use xlink:href="#DejaVuSerif-Bold-5d" x="521.728516"/>
     </g>
    </g>
   </g>
   <g id="matplotlib.axis_6"/>
   <g id="line2d_11">
    <path d="M 22.028785 256.189091 
L 23.221693 256.084295 
L 23.452578 255.911206 
L 23.644983 255.999331 
L 23.914349 256.167136 
L 24.914853 256.156427 
L 25.261181 255.994057 
L 25.453585 256.044234 
L 25.684471 256.09247 
L 26.030799 256.062684 
L 26.684974 256.168362 
L 29.494081 256.173901 
L 29.917371 256.069119 
L 30.071294 255.756678 
L 30.30218 255.284848 
L 30.456104 255.68837 
L 30.686989 256.14821 
L 31.033317 256.18846 
L 42.846956 256.08935 
L 43.039361 255.619165 
L 43.193284 255.307602 
L 43.231765 255.338458 
L 43.693536 256.080587 
L 44.001383 256.114933 
L 44.347712 256.129496 
L 45.54062 256.027998 
L 45.809986 255.861095 
L 46.541123 256.172412 
L 49.735039 256.066779 
L 50.19681 255.888557 
L 50.658581 256.029266 
L 51.004909 255.718167 
L 51.197313 255.321033 
L 51.620603 255.918813 
L 51.659084 255.888862 
L 51.851489 255.781894 
L 52.390221 256.148155 
L 52.851992 256.12123 
L 53.082878 256.148919 
L 53.313763 255.930285 
L 53.429206 255.920222 
L 53.737053 256.135694 
L 53.929458 256.003833 
L 54.121862 255.779236 
L 54.160343 255.829279 
L 54.391229 256.051444 
L 54.545152 255.765114 
L 54.699076 255.531657 
L 54.89148 255.709687 
L 55.083885 255.369657 
L 55.160847 255.447074 
L 55.237809 255.495009 
L 55.31477 255.193093 
L 55.430213 253.603333 
L 55.661099 248.410363 
L 55.69958 248.519633 
L 56.238312 255.249508 
L 56.892488 255.980173 
L 57.00793 256.02785 
L 57.046411 255.992384 
L 57.315778 255.85679 
L 57.43122 255.84125 
L 57.777549 256.137483 
L 57.969953 256.030732 
L 58.393243 255.429368 
L 58.470205 255.309515 
L 58.508686 255.347156 
L 58.931976 256.125345 
L 59.0859 255.994766 
L 59.278304 255.664696 
L 59.316785 255.684317 
L 59.740075 256.050651 
L 59.93248 256.079317 
L 60.240327 256.160596 
L 60.586655 256.078485 
L 60.856021 255.927104 
L 60.971464 255.835163 
L 61.202349 255.487417 
L 61.433235 255.867868 
L 61.66412 256.121233 
L 62.08741 256.178345 
L 62.549181 256.076142 
L 62.818548 255.556801 
L 62.972471 255.288262 
L 63.010952 255.349367 
L 63.35728 256.024175 
L 63.549685 256.087359 
L 63.819051 256.184986 
L 65.550692 256.124517 
L 65.781578 255.913587 
L 65.89702 255.812416 
L 66.281829 256.183649 
L 69.052455 256.147192 
L 69.475745 256.164888 
L 69.975997 256.058535 
L 70.206882 256.148289 
L 70.630172 256.078689 
L 70.938019 256.116282 
L 71.207386 255.956841 
L 71.592195 256.154368 
L 71.784599 256.086604 
L 72.015485 255.696827 
L 72.169408 255.34971 
L 72.207889 255.370292 
L 72.361813 255.608901 
L 72.400294 255.569308 
L 72.631179 254.931497 
L 72.708141 255.043252 
L 73.054469 256.05224 
L 73.09295 256.035816 
L 73.246874 255.718902 
L 73.400798 255.296049 
L 73.439278 255.317334 
L 73.824088 255.913872 
L 73.978011 255.920897 
L 74.208897 256.061951 
L 74.555225 255.896527 
L 74.747629 254.928291 
L 74.901553 254.391338 
L 74.940034 254.457606 
L 75.324843 255.540493 
L 75.440286 255.642669 
L 75.709652 255.97249 
L 75.902057 255.986982 
L 76.05598 256.028561 
L 76.402308 255.83055 
L 76.710156 256.099483 
L 77.133446 256.083974 
L 77.364331 256.159229 
L 77.787621 255.968602 
L 77.980026 255.589386 
L 78.133949 255.38076 
L 78.17243 255.412856 
L 78.364835 255.523524 
L 78.59572 255.155092 
L 78.634201 255.220368 
L 78.865087 255.740986 
L 78.903567 255.725381 
L 79.249896 255.551287 
L 79.365338 255.514758 
L 79.519262 255.326668 
L 79.557743 255.381091 
L 79.904071 256.00041 
L 80.057995 255.795768 
L 80.28888 255.479847 
L 80.442804 255.354767 
L 80.558247 255.255605 
L 80.596727 255.292315 
L 80.981536 255.820205 
L 81.712674 256.176621 
L 82.059002 256.070327 
L 82.328368 255.891591 
L 82.559254 256.012997 
L 82.713177 255.774316 
L 82.944063 255.375317 
L 83.521276 255.657828 
L 83.944566 255.157427 
L 84.060009 255.438903 
L 84.252414 255.883875 
L 84.290895 255.86542 
L 84.444818 255.75376 
L 84.483299 255.806423 
L 84.752666 256.137172 
L 85.175956 256.042609 
L 85.599246 255.560212 
L 85.945574 255.415427 
L 86.291902 255.644406 
L 86.484306 255.919865 
L 86.715192 256.150725 
L 86.984558 256.079095 
L 87.215444 256.059537 
L 87.48481 256.085155 
L 87.9081 255.878349 
L 88.062024 255.891138 
L 88.215947 255.508147 
L 88.408352 255.041385 
L 88.562275 255.442228 
L 88.75468 255.774604 
L 89.216451 255.949127 
L 89.562779 256.145978 
L 90.332397 256.030868 
L 90.486321 255.74915 
L 90.717206 255.247642 
L 90.909611 255.507027 
L 91.332901 255.951866 
L 91.486825 255.931978 
L 91.679229 255.769865 
L 92.064038 256.13809 
L 93.256946 256.183403 
L 94.757702 256.102498 
L 94.950106 256.079315 
L 95.10403 255.984084 
L 95.296434 255.868123 
L 95.488839 255.845266 
L 95.642763 255.886252 
L 95.95061 256.089942 
L 96.296938 256.174211 
L 99.375411 256.003786 
L 99.644777 255.53518 
L 99.721739 255.646006 
L 100.029586 256.03599 
L 100.18351 255.95811 
L 100.337434 255.963199 
L 100.683762 256.169903 
L 102.261479 256.180136 
L 109.265004 256.001446 
L 109.534371 255.826542 
L 110.227027 256.141182 
L 110.688798 256.043858 
L 110.996645 256.174204 
L 111.881706 256.145918 
L 112.074111 255.920537 
L 112.304996 255.667213 
L 112.766767 255.926951 
L 113.036133 256.124255 
L 113.382462 256.178658 
L 114.306003 256.039435 
L 114.729293 255.649084 
L 114.767774 255.687815 
L 115.191064 256.09967 
L 115.460431 255.938962 
L 115.652835 255.916292 
L 116.076125 256.101286 
L 116.460934 255.961933 
L 116.884224 256.169945 
L 117.192071 256.085067 
L 117.923209 255.696952 
L 118.077132 255.700871 
L 119.039155 254.700982 
L 119.23156 255.395401 
L 119.462445 255.999456 
L 119.693331 255.915716 
L 119.847254 255.726563 
L 120.07814 255.017118 
L 120.309025 254.289811 
L 120.50143 254.861953 
L 120.693834 255.187877 
L 120.886239 255.187687 
L 121.078643 255.58891 
L 121.117124 255.495374 
L 121.194086 254.783917 
L 121.309529 250.557547 
L 121.578895 230.631937 
L 121.617376 231.930028 
L 122.040666 255.492156 
L 122.117628 255.602333 
L 122.156109 255.491196 
L 122.386994 254.056581 
L 122.463956 254.279632 
L 122.733322 255.752188 
L 122.810284 255.625927 
L 123.195093 254.268607 
L 123.233574 254.360282 
L 123.46446 255.330168 
L 123.50294 255.269526 
L 123.733826 254.538233 
L 123.772307 254.615872 
L 124.118635 255.887242 
L 124.157116 255.86869 
L 124.31104 255.851546 
L 124.580406 255.995933 
L 124.811291 255.770876 
L 124.926734 255.380777 
L 125.080658 253.493658 
L 125.234581 251.726716 
L 125.273062 251.840887 
L 125.696352 254.605766 
L 126.0042 255.589784 
L 126.04268 255.577738 
L 126.312047 255.501071 
L 126.581413 255.952754 
L 126.619894 255.926668 
L 126.812299 255.717418 
L 126.85078 255.749706 
L 127.158627 256.011869 
L 127.504955 256.109347 
L 127.812802 255.662321 
L 128.005207 255.253617 
L 128.043688 255.281476 
L 128.620901 256.072238 
L 128.774825 255.873414 
L 129.044191 255.500799 
L 129.236596 255.580709 
L 129.582924 255.174275 
L 129.813809 255.341468 
L 129.929252 255.399277 
L 130.27558 255.98432 
L 130.314061 255.951736 
L 130.467985 255.547438 
L 130.891275 254.173304 
L 131.083679 253.786217 
L 131.199122 254.222222 
L 131.468489 255.279739 
L 131.699374 255.382706 
L 131.814817 255.370637 
L 132.122664 254.614551 
L 132.199626 254.727793 
L 132.545954 255.172733 
L 132.699878 255.06968 
L 132.738359 255.118113 
L 133.315572 256.070664 
L 133.354053 256.048131 
L 133.738862 255.674048 
L 133.892786 255.401339 
L 133.931267 255.421264 
L 134.123671 255.559931 
L 134.50848 254.8947 
L 134.585442 254.963929 
L 134.816328 255.133255 
L 135.047213 255.0758 
L 135.124175 255.148633 
L 135.162656 255.108435 
L 135.278099 254.73627 
L 135.470503 254.084727 
L 135.508984 254.113421 
L 135.970755 254.822171 
L 136.009236 254.781695 
L 136.20164 254.01207 
L 136.317083 253.797145 
L 136.471007 254.407399 
L 136.663411 254.922098 
L 136.817335 254.863403 
L 137.086701 254.274843 
L 137.163663 254.419099 
L 137.356068 254.733837 
L 137.586953 254.786579 
L 137.817838 254.999831 
L 138.087205 254.731772 
L 138.125686 254.793339 
L 138.472014 255.531187 
L 138.548976 255.407199 
L 138.74138 254.972341 
L 138.779861 255.013352 
L 138.972266 255.377177 
L 139.010747 255.328388 
L 139.318594 254.291133 
L 139.395556 254.477811 
L 139.703403 255.484416 
L 139.741884 255.445779 
L 139.972769 255.118624 
L 140.126693 255.27562 
L 140.165174 255.234239 
L 140.280617 254.776971 
L 140.511502 253.807236 
L 140.665426 253.994796 
L 140.703907 253.940534 
L 140.934792 253.1994 
L 140.973273 253.279963 
L 141.435044 254.752332 
L 141.588968 254.805496 
L 141.781372 255.08538 
L 141.819853 255.039515 
L 142.012258 254.19396 
L 142.089219 254.022587 
L 142.1277 254.068508 
L 142.435547 255.165494 
L 142.512509 254.991404 
L 142.704914 254.410502 
L 142.820357 253.170887 
L 143.089723 247.648041 
L 143.166685 248.301198 
L 143.436051 253.295065 
L 143.474532 253.204884 
L 143.666937 251.646367 
L 143.743898 251.795991 
L 143.782379 251.910316 
L 143.82086 251.877236 
L 143.897822 249.975376 
L 143.974784 243.562806 
L 144.128707 178.456774 
L 144.321112 51.970909 
L 144.359593 52.648822 
L 144.475036 117.281662 
L 144.744402 241.834379 
L 144.898326 249.166367 
L 145.013768 245.260946 
L 145.167692 238.930936 
L 145.206173 239.141384 
L 145.360097 246.063198 
L 145.552501 251.260394 
L 145.667944 249.582589 
L 145.860348 240.697358 
L 145.975791 237.51691 
L 146.014272 238.14115 
L 146.206677 244.747584 
L 146.283638 243.917213 
L 146.399081 241.834668 
L 146.437562 242.098777 
L 146.976295 252.158875 
L 147.053257 252.205208 
L 147.091737 252.128683 
L 147.20718 252.09949 
L 147.438066 253.236713 
L 147.515027 253.394537 
L 147.553508 253.338601 
L 147.707432 253.220964 
L 147.784394 253.270907 
L 147.822875 253.189826 
L 147.938317 251.903376 
L 148.169203 247.285815 
L 148.207684 247.707511 
L 148.630974 254.091612 
L 148.746417 254.260346 
L 149.015783 253.733253 
L 149.131226 254.103011 
L 149.32363 254.850673 
L 149.362111 254.835674 
L 149.631477 254.108526 
L 149.708439 254.159034 
L 149.900844 253.766915 
L 149.977806 253.888213 
L 150.131729 254.08031 
L 150.324134 253.986107 
L 150.478057 254.312281 
L 150.5935 254.4947 
L 150.631981 254.479479 
L 150.824386 254.314437 
L 150.862866 254.369125 
L 150.978309 254.563771 
L 151.01679 254.501944 
L 151.209195 253.794979 
L 151.247676 253.858117 
L 151.670966 255.231503 
L 151.824889 255.435223 
L 151.86337 255.396246 
L 152.055775 255.065824 
L 152.094256 255.111612 
L 152.517546 256.022514 
L 152.556026 255.990987 
L 152.786912 255.506008 
L 152.979316 255.365431 
L 153.441087 255.493161 
L 153.748935 254.749813 
L 153.864377 254.490083 
L 153.902858 254.538527 
L 154.056782 254.876636 
L 154.095263 254.843792 
L 154.287667 254.367428 
L 154.326148 254.422808 
L 154.633996 255.522317 
L 154.710957 255.484243 
L 154.8264 255.659177 
L 155.018805 255.89513 
L 155.365133 255.665603 
L 155.596018 255.823167 
L 155.826904 255.660516 
L 155.942346 255.616924 
L 156.134751 255.389224 
L 156.173232 255.436283 
L 156.404117 255.829623 
L 156.442598 255.791499 
L 156.673484 255.352077 
L 156.711965 255.38908 
L 156.981331 255.687011 
L 157.096774 255.560882 
L 157.327659 255.169678 
L 157.981835 255.996996 
L 158.597529 255.604139 
L 158.905376 255.025423 
L 159.0593 254.975733 
L 159.328666 254.659359 
L 159.367147 254.716234 
L 159.828918 255.736866 
L 159.944361 255.664849 
L 160.252208 255.318656 
L 160.406132 255.527262 
L 160.713979 255.847622 
L 160.906384 255.697134 
L 161.17575 255.119194 
L 161.329674 253.465532 
L 161.522078 251.476763 
L 161.637521 252.558551 
L 161.906887 255.153658 
L 161.983849 255.170531 
L 162.02233 255.1294 
L 162.253215 254.815393 
L 162.291696 254.8683 
L 162.484101 255.228833 
L 162.522582 255.201661 
L 162.753467 255.065252 
L 162.830429 255.059642 
L 163.099795 254.226053 
L 163.176757 254.349236 
L 163.407643 255.052711 
L 163.446124 255.038647 
L 163.677009 254.594254 
L 163.71549 254.664038 
L 163.984856 255.311234 
L 164.023337 255.294042 
L 164.369665 255.201036 
L 164.523589 255.256946 
L 164.715994 255.250337 
L 164.98536 255.619079 
L 165.100803 255.28274 
L 165.331688 254.342658 
L 165.370169 254.392807 
L 165.83194 255.947257 
L 165.908902 255.863109 
L 166.178268 255.203295 
L 166.370673 254.843711 
L 166.870924 255.364603 
L 167.063329 255.2588 
L 167.178772 255.333725 
L 167.5251 255.984924 
L 167.563581 255.96666 
L 168.063833 255.617071 
L 168.217756 255.581858 
L 168.410161 255.438112 
L 168.833451 255.96064 
L 169.025855 255.839124 
L 169.295222 255.056385 
L 169.487626 254.57893 
L 169.64155 255.018782 
L 169.949397 255.696885 
L 170.218763 255.799812 
L 170.680534 255.985937 
L 170.872939 255.53974 
L 171.065343 254.997991 
L 171.103824 255.009807 
L 171.796481 255.898176 
L 171.988885 255.828923 
L 172.335213 255.433279 
L 172.373694 255.470645 
L 172.566099 255.825051 
L 172.796984 256.077729 
L 173.02787 255.964014 
L 173.374198 255.664912 
L 173.643564 255.724515 
L 173.912931 256.014998 
L 174.220778 255.975269 
L 174.451663 256.15071 
L 175.452167 256.070045 
L 175.683053 256.05488 
L 175.952419 255.91489 
L 176.298747 256.071786 
L 176.645075 256.011639 
L 177.029884 256.124751 
L 177.761022 255.94094 
L 178.030388 255.999523 
L 178.376716 256.07719 
L 178.915449 256.16937 
L 180.146838 256.117658 
L 180.64709 256.060968 
L 181.416708 256.184586 
L 185.418722 256.142638 
L 185.611127 255.914627 
L 185.842012 255.16264 
L 186.072898 254.429856 
L 186.111379 254.448304 
L 186.265302 254.865864 
L 186.611631 255.908614 
L 186.842516 256.004147 
L 187.227325 255.919036 
L 187.612134 255.830392 
L 188.26631 255.889618 
L 188.651119 255.941759 
L 189.11289 255.849427 
L 189.767065 256.147849 
L 190.113393 256.100162 
L 190.38276 255.97105 
L 190.767569 256.162987 
L 191.383263 256.088861 
L 191.768072 255.957409 
L 192.037439 256.085461 
L 192.383767 255.910953 
L 192.691614 255.594773 
L 193.076423 254.953488 
L 193.268828 255.439797 
L 193.538194 255.980719 
L 193.923003 256.126859 
L 195.03895 256.144952 
L 196.462743 256.02891 
L 196.77059 255.581689 
L 197.001476 255.427468 
L 197.347804 255.51793 
L 197.732613 255.899441 
L 198.232865 255.929402 
L 198.579193 256.088587 
L 198.964002 255.806862 
L 199.194888 255.641232 
L 199.964506 255.960292 
L 201.349819 256.122346 
L 201.580704 255.965006 
L 201.927032 255.69504 
L 202.388803 255.911475 
L 202.773612 255.705397 
L 203.11994 255.898719 
L 203.389307 255.648846 
L 203.620192 254.987165 
L 203.735635 254.797787 
L 203.774116 254.823803 
L 204.043482 255.579782 
L 204.312848 255.977308 
L 204.466772 255.868184 
L 204.736138 255.682056 
L 205.082467 255.802195 
L 205.313352 255.950066 
L 205.65968 256.099685 
L 206.006008 256.080705 
L 206.313856 256.171345 
L 208.853596 255.96592 
L 209.353848 255.171501 
L 209.430809 255.240549 
L 209.777138 255.734989 
L 209.815618 255.704035 
L 210.046504 255.533198 
L 210.238908 255.830987 
L 210.508275 256.074241 
L 210.931565 256.104706 
L 211.393336 256.157786 
L 211.932068 256.172621 
L 212.740167 256.074962 
L 213.048015 255.726481 
L 213.086496 255.774859 
L 213.432824 256.164974 
L 214.818137 256.033217 
L 215.010541 255.684679 
L 215.39535 254.621974 
L 215.433831 254.642682 
L 215.741678 254.93363 
L 215.895602 255.037984 
L 216.24193 255.721984 
L 216.280411 255.693131 
L 216.434335 255.262946 
L 216.703701 254.401857 
L 216.819144 254.671061 
L 217.165472 255.704656 
L 217.319396 255.679336 
L 217.550281 255.55789 
L 218.012052 255.969806 
L 218.204456 255.74053 
L 218.473823 255.425781 
L 219.243441 256.11083 
L 220.128502 255.995231 
L 220.436349 256.11732 
L 221.32141 255.975178 
L 221.706219 256.02548 
L 221.898624 255.902228 
L 222.014066 255.561422 
L 222.16799 254.175138 
L 222.398876 248.800799 
L 222.629761 244.677364 
L 222.745204 246.523609 
L 223.130013 253.893444 
L 223.322417 254.341373 
L 223.514822 254.437237 
L 223.976593 255.379349 
L 224.015074 255.350359 
L 224.168997 255.302672 
L 224.784692 256.082478 
L 225.361905 256.066713 
L 225.631272 255.962782 
L 226.054562 256.128386 
L 226.477852 255.985145 
L 226.670256 255.997433 
L 227.055065 256.10427 
L 228.09405 256.128479 
L 228.632783 255.754154 
L 228.979111 255.296527 
L 229.479363 255.732106 
L 229.594805 255.756264 
L 229.941134 256.093436 
L 230.172019 255.933432 
L 230.402905 255.763399 
L 230.941637 255.781977 
L 231.134042 255.732472 
L 231.634294 255.96335 
L 231.788217 255.818412 
L 232.057584 255.474624 
L 232.32695 255.688829 
L 232.557835 255.345902 
L 232.596316 255.376342 
L 233.17353 256.126981 
L 233.827705 256.053126 
L 234.097072 255.943308 
L 234.289476 255.931545 
L 234.597324 256.135129 
L 234.943652 256.086336 
L 235.213018 255.81647 
L 235.405423 255.759357 
L 235.71327 255.833092 
L 235.944155 255.732139 
L 236.290484 255.131442 
L 236.328964 255.190912 
L 236.790735 256.020604 
L 237.175544 256.049034 
L 237.40643 256.062652 
L 237.598834 256.020192 
L 237.945163 255.660627 
L 238.137567 255.388358 
L 238.176048 255.418855 
L 238.907185 256.173523 
L 239.138071 256.092555 
L 239.484399 255.818224 
L 239.676803 255.831967 
L 240.215536 255.302965 
L 240.36946 255.526636 
L 240.638826 255.931086 
L 241.293002 256.057409 
L 241.485406 256.008185 
L 241.908696 256.172168 
L 242.331986 256.048688 
L 242.524391 255.686046 
L 242.793757 255.121676 
L 242.986162 255.36852 
L 243.33249 255.771049 
L 243.601856 255.528223 
L 243.640337 255.572777 
L 244.025146 255.976474 
L 244.294513 255.926039 
L 244.486917 255.577685 
L 244.794764 254.753141 
L 244.833245 254.812797 
L 245.256535 255.775298 
L 245.371978 255.570113 
L 245.564382 255.155031 
L 245.602863 255.178013 
L 246.257039 255.998717 
L 246.410962 255.909122 
L 246.71881 255.605406 
L 246.872733 255.55592 
L 247.103619 255.420427 
L 247.642352 255.648558 
L 247.911718 255.76153 
L 248.065642 255.809399 
L 248.335008 255.942186 
L 248.565893 255.922546 
L 248.912222 255.600871 
L 248.950702 255.643505 
L 249.297031 255.934252 
L 249.450954 255.862346 
L 249.720321 255.684961 
L 250.182092 255.859542 
L 250.797786 255.585934 
L 251.221076 255.075112 
L 251.490442 254.94627 
L 251.682847 255.408801 
L 251.990694 255.968874 
L 252.22158 255.973974 
L 252.606389 255.734473 
L 252.760312 255.564366 
L 252.798793 255.591388 
L 253.06816 255.803644 
L 253.376007 255.529053 
L 253.837778 256.012376 
L 255.107648 255.905267 
L 255.338533 255.94588 
L 255.569419 255.800293 
L 256.262075 256.161908 
L 257.185617 256.078391 
L 257.762831 255.930362 
L 258.14764 256.099121 
L 258.417006 256.031364 
L 258.647891 255.766056 
L 258.955739 255.390131 
L 259.148143 255.750415 
L 259.379029 256.039391 
L 259.725357 256.076015 
L 260.148647 255.926164 
L 260.533456 255.358824 
L 260.610418 255.468555 
L 261.072189 256.083676 
L 261.303074 255.925412 
L 261.610921 255.708903 
L 261.880288 255.69785 
L 262.226616 255.443644 
L 262.457501 255.797037 
L 262.726868 256.102171 
L 263.073196 256.172828 
L 265.459012 255.993474 
L 265.728379 255.937438 
L 266.151669 256.116484 
L 266.767363 255.99289 
L 266.959768 255.74367 
L 267.267615 255.09076 
L 267.306096 255.107922 
L 267.4985 255.549744 
L 267.767867 256.047919 
L 268.075714 256.128001 
L 268.460523 256.026848 
L 268.729889 255.628493 
L 269.114699 255.016801 
L 269.268622 255.253971 
L 269.691912 256.079193 
L 269.999759 256.133721 
L 270.423049 256.119104 
L 270.807859 255.840349 
L 271.038744 255.780514 
L 271.500515 255.915471 
L 272.116209 255.585971 
L 272.347095 255.594396 
L 272.501018 255.455475 
L 272.770385 255.525112 
L 272.962789 255.520701 
L 273.155194 255.234335 
L 273.42456 254.854939 
L 273.924812 255.203134 
L 274.078736 255.266875 
L 274.463545 255.78546 
L 274.655949 255.590559 
L 274.886835 255.445621 
L 275.233163 255.875252 
L 275.54101 256.060575 
L 275.925819 256.021172 
L 276.733918 255.52547 
L 277.041766 255.720628 
L 278.003788 255.87543 
L 278.619483 256.008463 
L 278.965811 256.097116 
L 279.696948 256.128691 
L 279.966315 255.918128 
L 280.158719 255.886794 
L 280.658971 256.043662 
L 283.391116 256.098904 
L 283.622001 255.857032 
L 283.891367 255.472607 
L 283.929848 255.493035 
L 284.545543 256.083287 
L 286.200222 255.755551 
L 286.585031 254.963704 
L 286.623512 254.990838 
L 286.815916 255.422289 
L 287.046802 255.732838 
L 287.162245 255.633743 
L 287.585535 254.70505 
L 287.662496 254.821815 
L 288.23971 255.995506 
L 288.778443 255.85912 
L 288.970847 255.734548 
L 289.201733 256.00767 
L 289.471099 256.13289 
L 289.701985 256.035491 
L 290.163756 255.614268 
L 290.856412 256.112315 
L 292.318686 256.076341 
L 292.741976 256.189091 
L 294.319694 256.189091 
L 294.319694 256.189091 
" clip-path="url(#p18c95d9293)" style="fill: none; stroke: #440154; stroke-linecap: square"/>
   </g>
   <g id="patch_5">
    <path d="M 8.414239 266.4 
L 307.934239 266.4 
" style="fill: none; stroke: #000000; stroke-width: 0.8; stroke-linejoin: miter; stroke-linecap: square"/>
   </g>
  </g>
 </g>
 <defs>
  <clipPath id="pe1f68bf764">
   <rect x="131.294239" y="7.2" width="299.52" height="224.64"/>
  </clipPath>
  <clipPath id="p03139d13ea">
   <rect x="69.854239" y="24.48" width="299.52" height="224.64"/>
  </clipPath>
  <clipPath id="p18c95d9293">
   <rect x="8.414239" y="41.76" width="299.52" height="224.64"/>
  </clipPath>
 </defs>
</svg>
